<svg width="95" height="49" viewBox="0 0 95 49" fill="none" xmlns="http://www.w3.org/2000/svg">
<path fill-rule="evenodd" clip-rule="evenodd" d="M94.5419 22.3845C94.7339 13.2805 94.8025 11.5724 94.967 10.3523C95.1042 9.31984 94.8025 8.23112 94.2676 7.89324C93.431 7.34888 93.6367 7.83693 93.3761 15.8146C93.3076 17.917 93.335 22.3094 93.2664 24.2053C93.239 24.7872 92.4161 25.05 92.4435 24.0739L92.5532 6.1663L93.1704 6.0349C93.8836 5.88474 93.9796 5.52809 93.4721 4.7397C93.0744 4.12025 92.567 3.97009 89.8789 3.70729C55.4962 0.478664 55.6196 0.140783 32.6201 0.0281566C25.3376 -0.00938554 19.3169 -0.00938554 19.2483 0.0281566C18.9191 0.197096 9.52452 0.103243 1.666 0.816544C0.417963 0.929171 0.308245 1.07934 0.843118 1.92404C1.378 2.76874 2.53006 2.86259 10.3337 2.5998C24.4599 2.14929 56.0722 2.52471 56.0722 3.14416C56.0722 3.3131 52.959 3.38818 48.1863 3.33187C34.5539 3.16293 15.6276 4.32674 3.54494 6.05368C-0.116884 6.57927 -0.144319 6.59804 0.0751162 7.49905C0.417983 8.86934 0.431703 16.5467 0.59628 19.0808C0.637424 19.6439 1.35059 42.2068 1.35059 42.8262C1.35059 44.403 1.48771 45.4166 1.73458 45.6794C2.00887 45.961 2.66718 45.9985 2.73575 45.717C2.76318 45.5856 2.90033 45.5856 3.17462 45.717C3.94264 46.1112 8.45479 46.3176 13.6115 46.205C16.3956 46.1299 20.5649 46.1675 22.869 46.2801C28.012 46.5054 46.6091 47.0122 54.4813 47.519C56.8128 47.6692 71.6384 48.5139 75.1219 48.7579C80.1003 49.0958 90.8115 49.077 90.9761 48.7203C91.4012 47.763 89.7143 46.8808 87.4514 46.862C85.5862 46.862 85.5313 45.6043 87.6845 45.4917C87.8354 45.4917 89.0011 45.4166 92.5807 45.6231C92.5807 45.6231 92.5807 46.1487 92.4847 47.2187C92.3887 48.3262 93.2527 50.0156 93.6778 47.1623C93.7053 46.9371 93.8287 45.5856 93.8287 45.5856C93.8287 45.5856 94.5282 45.4917 94.6379 45.4354C95.0356 45.2289 95.1179 44.5344 94.7476 43.8774C94.6242 43.6709 94.0893 43.4457 94.0893 43.4457C94.0893 43.4457 94.2127 37.7393 94.5419 22.3845ZM91.4698 10.9529C91.3875 12.7925 90.4549 39.6164 90.4 40.7239C90.3177 42.6197 90.2903 42.7511 90.0297 42.7511C88.8914 42.7511 81.4444 41.2682 62.0381 42.0003C59.542 42.0942 3.09234 43.4081 3.09234 43.4081C2.91405 43.4081 2.77691 43.2204 2.77691 42.9952C2.5849 36.6881 2.42031 35.1864 2.42031 32.7086C2.42031 32.4834 2.54376 32.3144 2.70833 32.3144C2.85919 32.3144 2.99633 32.4834 3.01004 32.6898C3.38034 42.2443 3.25692 42.5634 4.12095 42.5634C4.34038 42.5634 4.50497 42.3194 4.50497 42.0191C4.50497 40.1607 4.39525 37.7393 4.29925 35.8997C3.80552 25.707 3.70951 18.33 2.9552 8.08095C4.98497 8.00587 8.50966 7.91201 10.5394 7.57413C17.9317 6.37279 36.5836 6.18507 36.7071 6.01613C36.8579 5.82842 52.0538 5.97859 58.0745 6.22261C61.8324 6.37278 85.2296 7.31134 87.4514 7.36765C92.2515 7.48028 91.6344 6.91715 91.4698 10.9529Z" fill="black"/>
</svg>
