<svg width="208" height="98" viewBox="0 0 208 98" fill="none" xmlns="http://www.w3.org/2000/svg">
<path d="M196.216 53.2014C196.634 49.0346 196.773 48.5055 197.275 48.241C198.445 47.7118 203.88 39.3453 206.165 34.9471C208.339 30.7473 205.914 29.2591 204.047 31.3425C202.876 32.6653 201.204 34.8479 199.699 37.0966L197.303 40.7011C196.829 27.8702 196.913 25.8861 194.377 23.8358C192.9 22.6453 191.729 22.8106 192.008 24.1665C194.711 38.0225 191.06 63.5521 185.514 69.7691C180.498 75.3579 181.696 75.0933 158.984 75.8208C150.791 76.0854 118.575 77.1767 110.214 77.342C77.6643 78.0034 63.0892 78.5656 53.0846 79.4915C45.5601 80.186 26.8884 80.9796 19.5591 81.0127C8.52324 81.0458 7.29703 77.2428 5.01178 64.6103C3.61837 56.9382 3.78558 34.451 5.29046 25.9853C6.0987 21.5209 8.96912 16.5936 12.4805 13.7496C15.4903 11.3025 12.6477 9.25217 10.1953 10.5749C2.08564 14.9401 -0.673341 25.4892 0.134838 49.233C0.859412 70.7612 3.75768 78.5656 12.7871 83.1622L14.1526 83.8567L12.2854 86.3038C7.71505 92.2894 6.99048 94.7034 9.35928 96.1915C10.697 97.0514 11.115 96.2246 17.7198 85.5763C20.3951 85.5101 20.0886 85.4771 30.0375 85.6093C25.7458 90.9666 22.0672 95.0011 25.0212 96.886C26.0524 97.5474 29.8424 93.2484 33.7997 86.9652L34.8309 85.3448L37.3669 85.1795C42.0766 84.8488 48.9601 84.6503 48.9601 84.8488C48.9601 84.948 47.6224 86.7006 46.006 88.7179C41.9651 93.7775 41.2963 95.431 42.6897 97.0844C44.3897 99.1017 47.2322 93.9759 52.8616 84.4189C56.2058 84.0551 56.0107 84.022 66.3777 83.5921L65.0958 85.2125C59.9123 91.7272 58.3795 95.2325 59.968 97.1175C61.1663 98.5395 62.2253 97.5143 66.6285 90.5367C69.7776 85.5432 70.1399 84.6173 70.6973 83.4598C79.9495 82.6992 87.1395 82.6331 87.1395 82.8977C87.1395 83.063 86.192 84.3196 85.0216 85.6755C80.479 90.9997 78.4725 94.6042 79.0577 96.2907C80.061 99.2009 81.6495 98.0434 87.0281 90.5698C89.0067 87.825 90.9854 84.948 91.4313 84.1543C92.5739 82.1701 91.7935 82.4678 107.846 82.0048L106.982 83.0961C103.526 87.4612 101.436 90.4044 100.433 92.4547C99.0114 95.3979 100.098 98.9363 103.47 95.3979C106.006 92.7523 109.629 87.3951 111.106 83.6252L111.719 82.0709C127.827 82.0709 128.162 81.9387 127.716 82.6662C127.493 82.9969 125.988 85.1795 124.372 87.4612C120.303 93.1822 119.745 94.8357 121.195 96.6876C122.56 98.4403 122.95 98.1096 127.326 91.628C131.84 84.9149 133.066 82.9307 133.066 82.2693C133.066 81.8725 133.54 81.7072 135.352 81.5749C138.501 81.3103 150.345 81.0788 150.345 81.2773C150.345 81.8064 138.083 96.3569 143.21 97.5143C144.632 97.845 152.184 87.329 153.995 82.5008L154.497 81.145L162.077 80.7481C171.079 80.2852 170.493 79.9214 167.289 83.9559C162.969 89.3462 161.52 94.2405 164.251 94.2405C165.394 94.2405 171.051 86.403 173.336 81.608C174.116 79.9545 175.621 79.4254 179.467 79.3923C184.678 79.3262 191.729 73.539 194.599 62.5269C195.296 59.7491 195.854 56.6406 196.216 53.2014Z" fill="#E91D1D"/>
<path d="M39.6773 10.2444C44.5264 9.38457 47.1738 9.15309 52.4967 8.26021C59.0457 7.13586 62.1112 6.90437 73.6765 6.63982C79.8912 6.50754 86.273 6.20992 87.8893 6.0115C103.3 4.12655 135.934 3.9612 154.355 5.64774C156.194 5.81308 159.594 6.11071 161.88 6.27605C184.286 8.09487 188.159 9.48379 190.667 16.5937C191.726 19.603 192.59 20.8927 194.207 21.7856C195.823 22.7115 195.684 22.8769 199.474 16.5276C203.682 9.48378 203.71 9.41764 203.18 8.0618C202.177 5.54852 200.672 6.70596 195.935 13.7497C193.482 17.4204 193.371 17.5196 193.12 16.3953C192.618 14.1135 188.689 8.62398 186.404 7.03665C180.886 3.20061 167.732 2.63843 155.888 1.41486C144.852 0.290503 111.856 -0.403954 102.66 0.257433C100.597 0.42278 85.7992 1.41486 84.1271 1.58021C82.4272 1.74556 76.2404 2.04318 70.3324 2.2416C50.8246 2.83684 50.7967 4.19269 44.4149 5.05249C40.7084 5.54853 35.302 6.83824 28.2513 7.69804C23.4301 8.29329 23.2908 8.35942 23.9039 9.78141C24.7678 11.7986 30.0906 11.964 39.6773 10.2444Z" fill="#E91D1D"/>
<path d="M187.437 81.2115C184.873 84.7168 184.371 86.4364 185.458 88.0568C186.991 90.4048 188.802 88.4867 197.441 75.3582C203.154 66.6609 203.043 66.9586 201.761 65.3051C200.228 63.3871 200.145 63.7839 187.437 81.2115Z" fill="#E91D1D"/>
</svg>
