<svg width="1182" height="107" viewBox="0 0 1182 107" fill="none" xmlns="http://www.w3.org/2000/svg">
<path d="M33.9381 98.0134C35.829 94.1032 40.9615 62.9287 42.4472 60.2421C45.1485 55.5606 53.2524 8.93179 51.3615 8.58599C43.1226 6.96343 38.3952 9.38397 35.694 16.7254L34.0733 21.0345C31.9123 9.09138 32.7224 9.41057 26.7796 8.79879C13.1381 7.41562 15.9744 9.94256 15.9744 15.3157C15.9744 25.0777 13.5433 41.2235 11.2472 47.368C10.1667 50.4535 1.79283 88.7567 0.84738 90.2463C-1.04352 93.3584 -0.0979348 93.8638 7.06047 93.7308C10.4371 93.6776 11.2472 93.5446 11.2472 92.986C11.2472 91.9753 16.3799 87.6662 17.5955 87.6662C18.1357 87.6662 18.6757 90.2729 18.6757 93.4914C18.6757 95.5662 18.676 96.976 18.9461 97.9335C19.8916 100.354 28.6706 101.258 33.9381 98.0134Z" fill="black"/>
<path d="M1180.23 85.7775C1177.8 78.7287 1177.8 5.12796 1180.23 4.75557C1185.9 3.87779 1171.05 2.06903 1158.08 2.04243C1141.06 2.01583 949.54 0.446462 845.405 0.0208705C832.439 -0.0323284 788.678 0.0208689 748.159 0.127267C646.051 0.393261 656.856 0.659256 587.433 1.19124C489.106 1.93603 444.67 2.54782 284.889 5.34076C216.411 6.53774 123.487 8.55929 82.5629 9.67647C53.7943 10.4745 64.8698 11.6714 82.4282 11.9374C144.288 12.8152 486.405 12.8418 565.012 11.831C576.222 11.698 701.697 10.5011 720.066 10.2351C760.585 9.59667 796.782 9.27748 867.016 8.90509C919.556 8.61249 1125.26 6.59093 1136.2 6.35154C1160.78 5.81955 1158.76 4.70237 1152.81 15.2624C1147.82 24.3594 1144.44 33.7224 1143.22 41.4096C1139.44 34.946 1134.71 30.557 1133.63 12.6822C1133.63 12.2832 1132.01 11.9374 1129.99 11.8842C1123.91 11.7512 1123.1 24.3062 1128.23 38.3773C1129.31 41.25 1130.8 45.8251 1131.61 48.5383C1135.66 62.3168 1147.01 82.2664 1154.84 90.8846C1155.24 91.4166 1154.57 91.9486 1152.81 92.3476C1151.06 92.7466 1148.49 92.9859 1145.79 93.0126C1098.65 93.1189 979.929 92.9062 960.075 92.6136C866.475 91.257 826.902 91.0176 686.57 90.991C523.547 90.9644 460.607 91.4698 299.611 94.0233C217.086 95.3267 181.97 96.0715 121.326 97.7473C89.7214 98.625 58.1164 99.4496 51.2282 99.6092C30.1581 100.061 27.997 100.407 36.2359 102.03C41.5034 103.067 43.3943 103.067 102.147 101.631C175.081 99.8486 198.583 99.556 328.109 98.8378C354.447 98.6782 383.621 98.4388 392.94 98.3058C411.039 98.0133 540.43 97.2153 558.394 97.2951C570.415 97.3483 568.524 97.3749 534.758 97.7739C495.184 98.2526 424.95 99.3432 396.317 99.9018C284.619 102.163 219.247 103.094 213.98 102.535C204.12 101.498 152.796 104.051 156.578 105.408C164.411 108.174 169.949 106.259 246.395 105.328C277.325 104.956 298.935 104.583 391.589 102.801C473.844 101.232 584.596 99.8486 659.017 99.4762C749.645 99.024 941.708 96.9493 1093.38 97.4015C1175.64 97.6409 1171.45 97.5611 1157.14 94.7681L1166.45 94.9011C1183.61 95.1139 1183.34 95.2203 1180.23 85.7775ZM625.791 9.27748C608.233 9.38387 577.708 9.62327 557.989 9.83607C519.765 10.2351 336.485 10.7405 188.454 10.4479C300.152 8.95829 417.522 8.02731 598.778 8.5593C664.419 8.74549 673.739 8.98488 625.791 9.27748ZM1111.48 4.38318C1100.54 4.67577 1062.05 4.48958 1023.29 5.02156C980.335 5.63335 935.223 5.50036 892.003 6.16535C822.174 7.22932 483.703 6.03235 389.563 6.69733L326.083 7.14952C250.447 7.68151 490.321 4.54278 505.719 4.38318C560.96 3.82459 701.157 2.70742 705.614 2.68082C722.227 2.49462 938.195 2.76061 981.145 3.02661C1005.59 3.1862 1093.79 4.11719 1102.7 4.14379C1116.21 4.19698 1117.69 4.22358 1111.48 4.38318Z" fill="black"/>
</svg>
