<svg width="770" height="477" viewBox="0 0 770 477" fill="none" xmlns="http://www.w3.org/2000/svg">
<path d="M747.057 416.291C745.42 399.74 738.75 267.582 737.506 256.214C735.267 236.406 725.016 38.7408 726.192 37.2363C731.3 30.189 734.595 40.3645 737.123 71.4575L738.629 89.707C738.721 38.9946 738.236 40.3648 741.981 37.6514C750.581 31.5126 749.036 42.2896 749.618 65.0852C750.675 106.501 753.984 174.953 756.123 200.975C757.15 214.045 766.671 376.382 767.439 382.683C768.989 395.849 768.437 398.012 763.832 397.589C761.66 397.431 761.126 396.883 761.066 394.513C760.956 390.224 757.197 372.045 756.418 372.069C756.071 372.079 756.007 383.149 756.356 396.804C756.581 405.607 756.733 411.588 756.664 415.655C756.32 425.944 750.787 429.955 747.057 416.291Z" fill="black"/>
<path d="M10.5177 387.121C11.3132 357.168 3.33825 44.9122 1.73859 43.3806C-1.99491 39.7691 7.33824 31.8006 15.6517 31.4305C26.564 30.98 149.233 20.5224 215.977 16.651C224.288 16.1681 252.361 15.5256 278.361 15.1732C343.881 14.276 336.98 15.6189 381.564 16.4987C444.71 17.7078 473.277 19.4218 576.061 28.1013C620.111 31.821 679.931 38.5542 706.3 42.482C724.838 45.2968 717.864 50.5947 706.631 52.0715C667.05 57.0228 447.624 63.9226 397.097 61.1938C389.893 60.8519 309.285 58.2629 297.475 57.4988C271.417 55.5942 248.166 54.9581 203.079 54.7715C169.349 54.5725 37.1943 50.0767 30.1515 49.2781C14.3275 47.5087 15.5059 42.7289 20.4617 87.4123C24.6527 125.908 27.8338 165.564 29.4464 198.153C31.1716 170.656 33.728 151.942 32.4842 76.0854C32.441 74.3927 33.4431 72.8935 34.7368 72.6276C38.6206 71.9427 40.5008 125.192 38.7335 184.991C38.3518 197.2 37.8946 216.64 37.6688 228.167C36.5629 286.703 31.4469 371.566 27.3563 408.284C27.1541 410.549 27.6448 412.793 28.8142 414.451C29.9836 416.109 31.6564 417.074 33.3918 417.133C63.6366 416.649 139.76 413.391 152.463 411.756C212.349 404.144 237.705 402.343 327.709 399.446C432.267 396.099 472.69 396.995 576.228 404.634C629.299 408.527 651.903 410.99 690.981 416.897C711.346 419.994 731.707 422.865 736.142 423.405C749.705 424.906 751.129 426.33 746.02 433.377C742.754 437.883 741.541 437.92 703.702 432.992C656.73 426.878 641.625 426.103 558.471 425.626C541.561 425.471 522.823 425.034 516.832 424.655C505.192 423.772 422.115 422.954 410.602 423.649C402.898 424.113 404.114 424.188 425.814 425.211C451.248 426.457 496.413 429.691 514.839 431.493C586.725 438.869 628.754 441.522 632.072 439.048C638.284 434.451 671.479 444.266 669.201 450.097C664.476 461.988 660.717 453.973 611.584 451.54C591.706 450.574 577.805 449.422 518.185 443.7C465.258 438.673 394.073 435.002 346.301 434.899C288.124 434.778 164.713 429.786 67.4783 434.713C14.7476 437.361 17.4244 436.939 26.3044 424.806L20.3423 425.555C9.3636 426.798 9.54838 427.244 10.5177 387.121ZM357.838 51.5659C369.111 51.669 388.715 52.0791 401.386 52.5907C425.945 53.5252 543.553 52.0334 638.466 47.8554C566.663 43.7517 491.283 42.1303 375.086 47.9831C333.005 50.0753 327.053 51.2758 357.838 51.5659ZM45.7921 40.4368C52.8407 41.4612 77.5096 39.9076 102.43 41.3956C130.044 43.139 158.963 41.6799 186.756 43.6437C231.658 46.7724 448.619 34.9795 509.071 35.9332L549.836 36.5923C598.405 37.3488 444.213 28.7912 434.32 28.4196C398.829 27.1456 308.787 25.1872 305.926 25.1628C295.25 24.7024 156.76 30.1153 129.241 32.0958C113.579 33.2579 57.1116 38.9573 51.397 39.247C42.7399 39.7407 41.7899 39.883 45.7921 40.4368Z" fill="black"/>
</svg>
