<svg width="762" height="464" viewBox="0 0 762 464" fill="none" xmlns="http://www.w3.org/2000/svg">
<path d="M21.8453 415.969C23.1869 399.391 27.503 267.135 28.5444 255.746C30.4313 235.901 37.1611 38.0854 35.9592 36.602C30.7261 29.6467 27.6134 39.8793 25.6392 71.0123L24.458 89.2858C23.4633 38.583 23.9726 39.9444 20.1795 37.2981C11.472 31.3133 13.209 42.0611 13.0327 64.8635C12.7124 106.292 10.6227 174.791 8.94778 200.848C8.15323 213.933 1.52339 376.415 0.867881 382.728C-0.447512 395.919 0.142628 398.072 4.74009 397.568C6.9084 397.371 7.43256 396.813 7.45089 394.443C7.48406 390.153 10.9188 371.909 11.6988 371.919C12.0454 371.924 12.3063 382.991 12.2007 396.65C12.1326 405.455 12.0866 411.438 12.2285 415.504C12.7557 425.784 18.359 429.696 21.8453 415.969Z" fill="black"/>
<path d="M757.749 373.691C756.42 343.757 758.835 31.4088 760.408 29.8489C764.076 26.1715 754.603 18.3704 746.284 18.1484C735.365 17.8923 612.53 9.62003 545.727 6.93735C537.409 6.60244 509.329 6.45984 483.327 6.5703C417.801 6.83963 424.726 8.05942 380.164 9.73271C317.049 12.0658 288.517 14.2881 185.904 24.7958C141.927 29.2992 82.2371 37.0961 55.9421 41.4927C37.4569 44.637 44.5241 49.81 55.7814 51.0866C95.4443 55.3325 314.958 58.3251 365.429 54.6973C372.626 54.2272 453.175 50.2036 464.969 49.2294C490.989 46.8613 514.225 45.8114 559.302 44.8222C593.023 44.0228 725.077 37.1752 732.104 36.2513C747.894 34.2006 746.631 29.4424 742.471 74.207C738.966 112.771 736.492 152.477 735.459 185.09C733.245 157.628 730.356 138.962 730.249 63.0959C730.262 61.4027 729.234 59.9215 727.935 59.6787C724.04 59.0631 723.108 112.337 725.939 172.096C726.538 184.296 727.342 203.724 727.773 215.245C729.92 273.753 736.546 358.511 741.29 395.151C741.532 397.412 741.082 399.664 739.942 401.342C738.802 403.021 737.147 404.015 735.413 404.105C705.164 404.16 628.995 402.258 616.265 400.849C556.253 394.304 530.869 392.955 440.827 391.661C336.227 390.176 295.826 391.791 192.44 401.272C139.447 406.109 116.89 408.974 77.9239 415.575C57.6165 419.034 37.3105 422.268 32.8855 422.887C19.3514 424.629 17.9533 426.078 23.1865 433.033C26.5323 437.48 27.7456 437.496 65.4908 431.895C112.347 424.945 127.435 423.902 210.568 421.944C227.472 421.488 246.199 420.718 252.183 420.232C263.806 419.143 346.854 416.845 358.378 417.335C366.089 417.662 364.875 417.759 343.196 419.168C317.789 420.867 272.688 424.904 254.298 427.033C182.554 435.688 140.579 439.089 137.217 436.674C130.925 432.189 97.9094 442.593 100.291 448.382C105.227 460.188 108.843 452.107 157.924 448.8C177.782 447.48 191.661 446.081 251.169 439.298C303.998 433.33 375.107 428.393 422.87 427.439C481.035 426.282 604.338 419.094 701.645 422.29C754.414 423.998 751.73 423.624 742.636 411.651L748.61 412.294C759.609 413.342 759.432 413.791 757.749 373.691ZM404.511 44.3721C393.241 44.6758 373.647 45.4348 360.988 46.1719C336.449 47.5434 218.833 48.1454 123.861 45.6577C195.579 40.2764 270.918 37.3135 387.202 41.0969C429.313 42.4396 435.285 43.534 404.511 44.3721ZM716.309 27.6899C709.279 28.8395 684.587 27.7253 659.697 29.6567C632.119 31.8915 603.178 30.9473 575.424 33.4056C530.585 37.3331 313.448 29.4043 253.023 31.434L212.277 32.8186C163.728 34.4396 317.744 23.1386 327.628 22.5909C363.092 20.6853 453.084 17.1243 455.944 17.049C466.61 16.3986 605.174 19.3454 632.724 20.8357C648.405 21.7188 704.965 26.4121 710.684 26.6C719.348 26.9395 720.3 27.0649 716.309 27.6899Z" fill="black"/>
</svg>
