<svg width="1290" height="1021" viewBox="0 0 1290 1021" fill="none" xmlns="http://www.w3.org/2000/svg">
<path d="M1152.37 886.992C1165.67 878.401 1184.15 876.424 1209.98 880.924C1233.36 884.947 1259.61 882.764 1271.44 875.742C1279.63 870.901 1269.55 868.856 1256.67 872.742C1241.83 877.242 1226.5 877.719 1206.76 874.242C1178.2 869.265 1152.58 872.333 1141.1 882.151C1135.01 887.265 1145.16 891.628 1152.37 886.992Z" fill="black" fill-opacity="0.53"/>
<path d="M1273.89 907.787C1248.69 919.651 1233.5 915.628 1207.88 908.742C1188.35 903.492 1153.56 909.355 1142.01 919.924C1135.01 926.333 1141.73 930.56 1150.48 924.833C1168.12 913.378 1194.58 910.31 1218.8 916.855C1244.63 923.878 1261.08 923.128 1281.73 913.924C1297.55 906.901 1285.16 902.469 1273.89 907.787Z" fill="black" fill-opacity="0.53"/>
<path d="M967.068 299.361C974.137 299.935 976.494 297.206 971.707 293.974C960.441 286.362 939.675 271.28 929.955 266.468C917.658 260.436 915.964 264.817 918.026 275.302C921.708 293.759 922.076 310.349 924.138 320.188C926.936 333.546 936.435 331.679 936.435 322.989C936.435 315.664 932.532 279.324 931.575 277.816C930.102 275.589 959.852 298.786 967.068 299.361Z" fill="black" fill-opacity="0.53"/>
<path d="M958.968 303.239C955.875 300.51 953.519 298.572 951.604 297.351C938.939 289.163 941.663 303.455 941.957 306.687C942.694 315.592 946.965 334.696 948.364 335.486C953.96 338.502 955.359 329.382 952.193 310.637C951.898 308.698 952.635 309.272 958.673 315.521C966.184 323.205 968.761 324.57 973.032 323.205C977.671 321.625 974.285 316.813 958.968 303.239Z" fill="black" fill-opacity="0.53"/>
<path d="M394.392 958.198C392.915 957.114 391.044 957.607 388.975 959.609C386.119 962.334 386.021 963.385 388.581 963.451C390.879 963.516 395.705 959.15 394.392 958.198Z" fill="black" fill-opacity="0.53"/>
<path d="M394.228 952.65C394.228 951.796 391.174 950.91 389.96 951.435C387.924 952.289 376.467 961.284 375.646 961.612C373.643 962.4 376.729 964.009 379.027 963.385C381.129 962.794 394.228 953.569 394.228 952.65Z" fill="black" fill-opacity="0.53"/>
<path d="M384.773 919.13C387.235 919.163 387.891 918.309 386.348 917.029C383.361 914.501 381.03 913.648 379.192 914.436C377.025 915.322 381.457 919.065 384.773 919.13Z" fill="black" fill-opacity="0.53"/>
<path d="M423.15 922.61C424.923 922.643 428.239 920.575 428.042 919.557C427.681 917.719 424.004 917.719 422.034 919.557C419.9 921.527 420.261 922.577 423.15 922.61Z" fill="black" fill-opacity="0.53"/>
<path d="M392.06 918.178C395.278 918.769 395.048 917.193 391.075 911.547C383.754 901.139 381.292 898.513 379.552 899.235C377.221 900.155 388.712 917.522 392.06 918.178Z" fill="black" fill-opacity="0.53"/>
<path d="M441.995 913.221C440.387 913.91 428.404 921.855 425.416 924.186C424.76 924.711 427.025 925.63 428.699 925.499C430.373 925.368 430.997 925.039 437.727 920.607C441.7 917.981 445.377 915.584 445.869 915.289C448.233 913.812 444.819 912.006 441.995 913.221Z" fill="black" fill-opacity="0.53"/>
<path d="M428.928 955.538C427.155 953.897 424.693 952.978 424.003 953.7C423.577 954.127 424.496 955.177 426.17 956.129C428.862 957.672 430.799 957.245 428.928 955.538Z" fill="black" fill-opacity="0.53"/>
<path d="M424.366 937.778C426.138 936.858 426.106 936.596 424.103 934.626C417.964 928.618 412.842 914.764 411.693 901.172C411.266 896.281 406.703 891.652 404.274 903.306C401.188 918.014 393.9 932.985 389.074 934.528C385.823 935.578 386.185 937.778 389.599 937.778C394.655 937.778 397.741 942.341 399.71 952.847C400.991 959.675 403.157 970.246 403.354 970.805C403.847 972.118 408.345 974.252 409.526 965.519C411.168 953.175 417.603 941.225 424.366 937.778ZM418.686 936.268C413.269 940.109 407.918 947.561 406.539 953.241C406.211 954.554 405.85 954.357 405.587 952.748C404.307 944.541 401.582 939.616 396.985 937.023L395.213 936.005C399.94 930.982 402.074 929.176 407.557 913.779C407.786 913.123 407.819 913.221 409.001 917.193C411.201 924.744 413.959 930.128 417.504 933.838C419.277 935.742 419.31 935.841 418.686 936.268Z" fill="black" fill-opacity="0.53"/>
<path d="M418.095 956.13C417.142 956.688 417.405 957.213 420.196 960.759C425.087 966.964 427.681 968.802 429.29 967.193C430.045 966.438 429.651 965.749 426.072 961.35C421.64 955.9 420.163 954.948 418.095 956.13Z" fill="black" fill-opacity="0.53"/>
<path d="M730.655 104.739C728.167 102.915 725.016 103.744 721.533 107.117C716.724 111.705 716.558 113.474 720.87 113.585C724.74 113.695 732.867 106.343 730.655 104.739Z" fill="black" fill-opacity="0.53"/>
<path d="M730.379 95.3962C730.379 93.9588 725.237 92.4661 723.192 93.3507C719.764 94.7881 700.47 109.936 699.088 110.489C695.716 111.816 700.912 114.525 704.782 113.474C708.32 112.479 730.379 96.9442 730.379 95.3962Z" fill="black" fill-opacity="0.53"/>
<path d="M714.457 38.9507C718.603 39.006 719.709 37.5686 717.111 35.4125C712.08 31.1556 708.155 29.7183 705.059 31.0451C701.41 32.5378 708.873 38.8402 714.457 38.9507Z" fill="black" fill-opacity="0.53"/>
<path d="M779.084 44.8109C782.07 44.8662 787.653 41.3832 787.322 39.6694C786.714 36.5735 780.522 36.5735 777.205 39.6694C773.611 42.9865 774.219 44.7556 779.084 44.8109Z" fill="black" fill-opacity="0.53"/>
<path d="M726.73 37.3475C732.148 38.3426 731.761 35.689 725.072 26.1801C712.743 8.65488 708.597 4.23211 705.667 5.44837C701.742 6.99634 721.091 36.242 726.73 37.3475Z" fill="black" fill-opacity="0.53"/>
<path d="M810.818 28.9994C808.109 30.1604 787.93 43.5393 782.899 47.4645C781.794 48.3491 785.608 49.8971 788.428 49.6759C791.247 49.4548 792.298 48.9019 803.631 41.4385C810.32 37.0157 816.512 32.9798 817.342 32.4822C821.322 29.9944 815.572 26.9539 810.818 28.9994Z" fill="black" fill-opacity="0.53"/>
<path d="M788.814 100.261C785.829 97.497 781.683 95.9491 780.522 97.1653C779.803 97.884 781.351 99.6531 784.171 101.256C788.704 103.855 791.966 103.136 788.814 100.261Z" fill="black" fill-opacity="0.53"/>
<path d="M781.13 70.3524C784.115 68.8044 784.06 68.3621 780.688 65.045C770.349 54.928 761.725 31.5979 759.79 8.71006C759.071 0.472661 751.387 -7.32246 747.296 12.3036C742.099 37.071 729.826 62.2808 721.699 64.8792C716.226 66.6483 716.834 70.3524 722.584 70.3524C731.097 70.3524 736.294 78.0369 739.611 95.728C741.767 107.227 745.416 125.029 745.748 125.969C746.577 128.18 754.151 131.773 756.141 117.068C758.906 96.2808 769.741 76.1572 781.13 70.3524ZM771.566 67.8093C762.444 74.2776 753.432 86.8271 751.11 96.3914C750.558 98.6028 749.949 98.271 749.507 95.5621C747.351 81.741 742.762 73.4483 735.023 69.0808L732.037 67.367C739.998 58.9084 743.592 55.8678 752.824 29.9395C753.211 28.8338 753.267 28.9997 755.257 35.6891C758.961 48.4044 763.605 57.4711 769.576 63.7182C772.561 66.9247 772.616 67.0906 771.566 67.8093Z" fill="black" fill-opacity="0.53"/>
<path d="M770.571 101.256C768.968 102.196 769.41 103.081 774.109 109.052C782.346 119.5 786.714 122.596 789.423 119.887C790.694 118.616 790.031 117.455 784.005 110.047C776.542 100.869 774.054 99.2662 770.571 101.256Z" fill="black" fill-opacity="0.53"/>
<path d="M1090.66 627.739C1088.17 625.915 1085.02 626.744 1081.53 630.117C1076.72 634.705 1076.56 636.474 1080.87 636.585C1084.74 636.695 1092.87 629.343 1090.66 627.739Z" fill="black" fill-opacity="0.53"/>
<path d="M1090.38 618.396C1090.38 616.959 1085.24 615.466 1083.19 616.351C1079.76 617.788 1060.47 632.936 1059.09 633.489C1055.72 634.816 1060.91 637.525 1064.78 636.474C1068.32 635.479 1090.38 619.944 1090.38 618.396Z" fill="black" fill-opacity="0.53"/>
<path d="M1074.46 561.951C1078.6 562.006 1079.71 560.569 1077.11 558.413C1072.08 554.156 1068.15 552.718 1065.06 554.045C1061.41 555.538 1068.87 561.84 1074.46 561.951Z" fill="black" fill-opacity="0.53"/>
<path d="M1139.08 567.811C1142.07 567.866 1147.65 564.383 1147.32 562.669C1146.71 559.573 1140.52 559.573 1137.2 562.669C1133.61 565.986 1134.22 567.756 1139.08 567.811Z" fill="black" fill-opacity="0.53"/>
<path d="M1086.73 560.347C1092.15 561.343 1091.76 558.689 1085.07 549.18C1072.74 531.655 1068.6 527.232 1065.67 528.448C1061.74 529.996 1081.09 559.242 1086.73 560.347Z" fill="black" fill-opacity="0.53"/>
<path d="M1170.82 551.999C1168.11 553.16 1147.93 566.539 1142.9 570.465C1141.79 571.349 1145.61 572.897 1148.43 572.676C1151.25 572.455 1152.3 571.902 1163.63 564.439C1170.32 560.016 1176.51 555.98 1177.34 555.482C1181.32 552.994 1175.57 549.954 1170.82 551.999Z" fill="black" fill-opacity="0.53"/>
<path d="M1148.81 623.261C1145.83 620.497 1141.68 618.949 1140.52 620.165C1139.8 620.884 1141.35 622.653 1144.17 624.256C1148.7 626.855 1151.97 626.136 1148.81 623.261Z" fill="black" fill-opacity="0.53"/>
<path d="M1141.13 593.352C1144.12 591.804 1144.06 591.362 1140.69 588.045C1130.35 577.928 1121.73 554.598 1119.79 531.71C1119.07 523.473 1111.39 515.678 1107.3 535.304C1102.1 560.071 1089.83 585.281 1081.7 587.879C1076.23 589.648 1076.83 593.352 1082.58 593.352C1091.1 593.352 1096.29 601.037 1099.61 618.728C1101.77 630.227 1105.42 648.029 1105.75 648.969C1106.58 651.18 1114.15 654.773 1116.14 640.068C1118.91 619.281 1129.74 599.157 1141.13 593.352ZM1131.57 590.809C1122.44 597.278 1113.43 609.827 1111.11 619.391C1110.56 621.603 1109.95 621.271 1109.51 618.562C1107.35 604.741 1102.76 596.448 1095.02 592.081L1092.04 590.367C1100 581.908 1103.59 578.868 1112.82 552.94C1113.21 551.834 1113.27 552 1115.26 558.689C1118.96 571.404 1123.6 580.471 1129.58 586.718C1132.56 589.925 1132.62 590.091 1131.57 590.809Z" fill="black" fill-opacity="0.53"/>
<path d="M1130.57 624.256C1128.97 625.196 1129.41 626.081 1134.11 632.052C1142.35 642.5 1146.71 645.596 1149.42 642.887C1150.69 641.616 1150.03 640.455 1144.01 633.047C1136.54 623.869 1134.05 622.266 1130.57 624.256Z" fill="black" fill-opacity="0.53"/>
<path d="M162.632 198.794C160.832 197.474 158.551 198.074 156.031 200.514C152.55 203.835 152.43 205.115 155.551 205.195C158.351 205.275 164.232 199.954 162.632 198.794Z" fill="black" fill-opacity="0.53"/>
<path d="M162.432 192.033C162.432 190.993 158.712 189.913 157.231 190.553C154.751 191.593 140.789 202.555 139.789 202.955C137.348 203.915 141.109 205.875 143.909 205.115C146.47 204.395 162.432 193.153 162.432 192.033Z" fill="black" fill-opacity="0.53"/>
<path d="M150.91 151.186C153.911 151.226 154.711 150.186 152.83 148.626C149.19 145.546 146.35 144.505 144.109 145.466C141.469 146.546 146.87 151.106 150.91 151.186Z" fill="black" fill-opacity="0.53"/>
<path d="M197.677 155.427C199.837 155.467 203.878 152.947 203.638 151.707C203.197 149.466 198.717 149.466 196.316 151.707C193.716 154.107 194.156 155.387 197.677 155.427Z" fill="black" fill-opacity="0.53"/>
<path d="M159.791 150.026C163.712 150.746 163.432 148.826 158.591 141.945C149.67 129.263 146.669 126.063 144.549 126.943C141.708 128.063 155.711 149.226 159.791 150.026Z" fill="black" fill-opacity="0.53"/>
<path d="M220.641 143.985C218.681 144.825 204.079 154.507 200.438 157.347C199.638 157.988 202.398 159.108 204.439 158.948C206.479 158.788 207.239 158.388 215.44 152.987C220.281 149.786 224.762 146.866 225.362 146.506C228.243 144.705 224.082 142.505 220.641 143.985Z" fill="black" fill-opacity="0.53"/>
<path d="M204.718 195.554C202.558 193.553 199.557 192.433 198.717 193.313C198.197 193.833 199.317 195.113 201.358 196.274C204.638 198.154 206.999 197.634 204.718 195.554Z" fill="black" fill-opacity="0.53"/>
<path d="M199.158 173.91C201.318 172.79 201.278 172.47 198.838 170.07C191.357 162.748 185.116 145.866 183.715 129.303C183.195 123.342 177.634 117.701 174.674 131.903C170.913 149.826 162.032 168.069 156.151 169.95C152.19 171.23 152.631 173.91 156.791 173.91C162.952 173.91 166.713 179.471 169.113 192.273C170.673 200.594 173.314 213.476 173.554 214.157C174.154 215.757 179.635 218.357 181.075 207.716C183.075 192.673 190.916 178.111 199.158 173.91ZM192.237 172.07C185.636 176.751 179.115 185.832 177.434 192.753C177.034 194.353 176.594 194.113 176.274 192.153C174.714 182.151 171.393 176.15 165.792 172.99L163.632 171.75C169.393 165.629 171.993 163.428 178.675 144.666C178.955 143.865 178.995 143.985 180.435 148.826C183.115 158.028 186.476 164.589 190.796 169.109C192.957 171.43 192.997 171.55 192.237 172.07Z" fill="black" fill-opacity="0.53"/>
<path d="M191.516 196.274C190.356 196.954 190.676 197.594 194.077 201.915C200.038 209.476 203.198 211.716 205.159 209.756C206.079 208.836 205.599 207.996 201.238 202.635C195.837 195.994 194.037 194.833 191.516 196.274Z" fill="black" fill-opacity="0.53"/>
<path fill-rule="evenodd" clip-rule="evenodd" d="M612.695 741.118C592.471 747.806 588.759 779.006 608.119 779.678C617.271 779.998 630.327 771.774 630.711 764.958C630.871 762.238 626.711 762.43 625.783 765.214C623.031 773.342 609.751 779.87 604.951 775.742C596.887 768.83 600.055 752.862 611.063 745.118C621.719 737.63 629.431 752.158 620.151 762.302C612.919 770.206 605.879 762.11 612.119 753.054C614.359 749.822 616.983 749.566 619.671 752.318C620.951 753.63 622.551 753.086 622.199 751.358C621.431 747.326 612.631 747.422 608.407 751.55C599.511 760.222 607.447 771.774 619.351 767.454C636.279 761.31 629.719 735.486 612.695 741.118Z" fill="black" fill-opacity="0.53"/>
<path fill-rule="evenodd" clip-rule="evenodd" d="M405.695 102.118C385.471 108.806 381.759 140.006 401.119 140.678C410.271 140.998 423.327 132.774 423.711 125.958C423.871 123.238 419.711 123.43 418.783 126.214C416.031 134.342 402.751 140.87 397.951 136.742C389.887 129.83 393.055 113.862 404.063 106.118C414.719 98.6298 422.431 113.158 413.151 123.302C405.919 131.206 398.879 123.11 405.119 114.054C407.359 110.822 409.983 110.566 412.671 113.318C413.951 114.63 415.551 114.086 415.199 112.358C414.431 108.326 405.631 108.422 401.407 112.55C392.511 121.222 400.447 132.774 412.351 128.454C429.279 122.31 422.719 96.4858 405.695 102.118Z" fill="black" fill-opacity="0.53"/>
<path d="M77.8617 606.651C79.5657 605.331 89.0697 598.875 90.7977 597.891C92.2617 597.075 92.5977 596.763 92.9097 595.947C93.7497 593.715 95.0457 586.419 95.5497 581.043C95.8137 578.379 94.1337 576.939 92.0457 578.067C91.5897 578.307 90.2937 578.955 89.1657 579.507C88.0377 580.035 84.7737 582.099 81.8937 584.067C75.4377 588.507 75.6297 586.299 74.5257 597.387C74.2857 599.955 72.3897 610.899 77.8617 606.651ZM78.8457 591.651C78.8457 590.883 79.6617 590.211 84.8457 586.707C87.4137 584.955 89.9097 583.227 90.3657 582.843C91.4937 581.931 91.5417 581.955 91.3017 583.419C90.0297 591.171 89.1657 593.115 88.3257 595.395C82.9977 598.107 76.9977 602.619 76.7817 602.499C76.6857 602.355 78.8457 593.643 78.8457 591.651Z" fill="black" fill-opacity="0.53"/>
<path d="M75.6777 632.067C77.4777 632.067 89.1417 621.627 90.2457 620.835C92.5257 619.203 95.3577 606.291 93.6057 605.475C92.8857 605.139 93.0297 605.115 91.3017 605.547C90.5577 605.739 87.4617 607.131 84.4137 608.667C77.4777 612.147 78.1977 610.971 77.3817 613.035C75.2457 618.411 73.8777 628.995 73.3257 629.883C72.7737 630.675 74.2857 632.067 75.6777 632.067ZM77.7417 624.147C78.6777 621.195 79.6617 617.067 80.3577 614.235C89.1177 610.275 90.6057 609.147 90.6057 609.651C90.6057 610.251 89.6697 611.523 88.5657 619.155C86.5017 620.427 82.1817 622.971 79.4697 625.011C76.6137 627.147 76.7817 627.219 77.7417 624.147Z" fill="black" fill-opacity="0.53"/>
<path d="M68.3577 615.963C66.3657 612.579 62.9337 616.155 62.4537 616.515C57.1017 620.547 54.8937 623.115 52.0617 625.587C50.5977 626.883 51.4137 626.523 49.2057 634.347C46.7577 643.035 48.1257 644.883 55.0857 639.627C59.4057 636.363 59.6457 636.411 64.3977 633.003C66.4377 631.563 66.2217 630.099 67.3257 626.163C68.6457 621.483 69.0777 617.163 68.3577 615.963ZM62.1657 629.955C61.9017 631.611 59.5977 631.467 55.2297 634.587C52.0617 636.867 53.5737 636.003 54.3657 629.811L54.6537 627.555C62.8137 621.051 64.6857 618.723 64.6857 619.587C64.6857 619.587 62.3577 628.755 62.1657 629.955Z" fill="black" fill-opacity="0.53"/>
<path d="M113.79 587.619C110.118 589.875 100.59 597.027 99.7017 597.795C98.9577 598.419 98.2377 598.947 98.1177 598.947C97.2297 598.947 97.9017 602.331 97.2297 607.995C96.1977 616.779 96.7497 618.771 105.51 613.563C107.094 612.627 109.47 611.475 110.838 610.971C114.99 609.435 114.702 609.723 114.87 607.347C114.942 606.219 115.374 603.915 115.782 602.187C116.766 598.203 117.534 593.763 117.774 591.003C118.134 587.091 116.166 586.155 113.79 587.619ZM113.406 594.675C112.686 598.419 110.814 606.003 110.718 606.843C110.598 607.827 107.046 608.643 102.414 611.283C100.014 612.651 100.206 612.867 100.71 609.387C101.214 606.003 101.526 602.667 101.742 600.387C101.742 600.387 110.79 594.027 111.846 593.235C114.174 591.483 114.03 591.387 113.406 594.675Z" fill="black" fill-opacity="0.53"/>
<path d="M104.766 617.283C99.3897 620.691 96.0297 622.947 95.7417 622.947C94.8777 622.947 92.1417 635.379 92.4297 637.947C92.5257 638.739 92.7417 640.947 92.7417 641.091C93.0057 643.083 98.5017 640.443 106.326 634.515C108.51 632.859 108.798 632.715 109.71 632.763C111.174 632.835 111.582 632.043 112.11 628.227C113.862 615.243 112.11 612.627 104.766 617.283ZM107.79 630.531C107.766 630.555 106.254 631.347 104.406 632.331C97.6857 635.859 95.7417 637.731 95.9577 636.819C96.0777 636.339 97.0857 629.235 97.4457 626.403C97.5417 625.707 97.7097 625.347 98.0937 625.155C98.3817 625.011 108.702 618.963 108.702 618.963C108.726 618.987 108.246 630.531 107.79 630.531Z" fill="black" fill-opacity="0.53"/>
<path d="M86.7657 628.491C85.8057 629.091 80.8617 632.643 78.0057 634.803C73.7817 637.995 73.1817 638.907 71.7897 644.307C71.3337 646.083 70.6857 648.411 70.3497 649.467C67.4697 658.611 70.6377 659.019 72.6777 657.651C74.1177 656.667 82.6857 649.515 84.5577 647.739C85.9497 646.395 86.4297 646.083 86.8857 646.179C88.3497 646.467 88.8537 645.219 89.7657 638.931C90.5097 633.771 91.2057 625.731 86.7657 628.491ZM86.8617 633.339C86.6217 634.947 85.3257 642.651 85.3257 643.395C85.3257 643.803 73.4937 652.035 73.6857 651.315C75.4617 644.307 75.1737 639.747 75.9657 639.747C76.3737 639.747 77.3817 639.075 83.2617 634.875C87.4137 631.899 87.0537 632.043 86.8617 633.339Z" fill="black" fill-opacity="0.53"/>
<path d="M54.0297 617.595C54.9417 617.115 57.4137 614.835 60.7257 612.171C69.0537 605.427 69.4137 604.947 70.6617 598.707C72.0297 591.795 72.6297 583.443 67.1577 587.883C65.5737 589.179 56.5257 596.067 55.2057 596.979C53.3577 598.275 51.3417 612.843 50.6217 616.011C50.3577 617.235 52.6377 618.291 54.0297 617.595ZM57.5577 600.027C66.3657 593.379 67.5657 592.419 67.5657 592.827C67.5657 593.115 65.9337 600.435 65.7897 601.875C65.6457 603.459 60.6777 606.891 54.7977 611.859C54.0297 612.483 54.8937 611.475 57.5577 600.027Z" fill="black" fill-opacity="0.53"/>
<path fill-rule="evenodd" clip-rule="evenodd" d="M444.507 674.37C442.667 675.01 443.947 675.73 439.907 675.17C410.507 671.17 376.747 689.65 373.827 711.61C373.387 714.85 378.627 716.09 380.907 713.29L382.027 711.93C380.707 718.09 379.907 720.33 384.947 720.61C386.307 720.69 387.147 720.97 387.667 721.53C389.827 723.85 392.787 723.05 395.867 719.29C398.587 715.97 398.707 715.89 397.707 718.17C395.427 723.33 395.067 728.09 396.907 729.05C399.067 730.17 402.027 729.85 402.827 728.41C412.747 710.57 424.387 703.13 428.387 700.29C431.187 698.33 436.907 692.93 454.747 695.29C459.267 695.89 461.147 695.05 459.427 693.17C459.067 692.77 458.547 692.05 458.307 691.57C457.707 690.33 453.747 689.05 448.707 688.45C433.867 686.69 418.467 693.09 403.787 705.65C397.347 711.21 396.507 713.49 395.867 712.93C395.027 712.17 397.267 708.97 397.907 708.01C407.027 694.37 424.387 685.97 444.467 685.85C448.507 685.81 450.947 685.73 452.307 685.49C455.667 684.85 452.267 682.61 449.147 682.61C448.707 682.61 447.867 682.25 447.387 681.81C443.307 678.29 423.787 681.73 423.467 681.77C412.347 683.45 403.827 687.61 395.187 694.93C384.627 703.85 383.307 703.13 386.947 698.29C398.787 682.53 417.867 675.65 440.307 678.25C449.267 679.29 450.987 679.05 450.387 676.77C449.987 675.17 446.387 673.69 444.507 674.37ZM417.267 688.97C406.827 694.09 399.747 698.49 394.307 705.45C390.307 710.57 388.827 709.85 392.067 704.97C397.587 696.73 405.307 690.41 416.667 686.21C421.627 684.37 423.907 685.73 417.267 688.97Z" fill="black" fill-opacity="0.53"/>
<path fill-rule="evenodd" clip-rule="evenodd" d="M23.5068 69.3696C21.6668 70.0096 22.9468 70.7296 18.9068 70.1696C-10.4932 66.1696 -44.2531 84.6496 -47.1731 106.61C-47.6131 109.85 -42.3732 111.09 -40.0932 108.29L-38.9732 106.93C-40.2932 113.09 -41.0928 115.33 -36.0528 115.61C-34.6928 115.69 -33.8532 115.97 -33.3332 116.53C-31.1732 118.85 -28.2132 118.05 -25.1332 114.29C-22.4132 110.97 -22.2932 110.89 -23.2932 113.17C-25.5732 118.33 -25.9332 123.09 -24.0932 124.05C-21.9332 125.17 -18.9732 124.85 -18.1732 123.41C-8.2532 105.57 3.38719 98.1296 7.38719 95.2896C10.1872 93.3296 15.9072 87.9296 33.7472 90.2896C38.2672 90.8896 40.1468 90.0496 38.4268 88.1696C38.0668 87.7696 37.5468 87.0496 37.3068 86.5696C36.7068 85.3296 32.7468 84.0496 27.7068 83.4496C12.8668 81.6896 -2.5328 88.0896 -17.2128 100.65C-23.6528 106.21 -24.4932 108.49 -25.1332 107.93C-25.9732 107.17 -23.7332 103.97 -23.0932 103.01C-13.9732 89.3696 3.3868 80.9696 23.4668 80.8496C27.5068 80.8096 29.9468 80.7296 31.3068 80.4896C34.6668 79.8496 31.2672 77.6096 28.1472 77.6096C27.7072 77.6096 26.8672 77.2496 26.3872 76.8096C22.3072 73.2896 2.78679 76.7296 2.46679 76.7696C-8.65321 78.4496 -17.1728 82.6096 -25.8128 89.9296C-36.3728 98.8496 -37.6928 98.1296 -34.0528 93.2896C-22.2128 77.5296 -3.1332 70.6496 19.3068 73.2496C28.2668 74.2896 29.9872 74.0496 29.3872 71.7696C28.9872 70.1696 25.3868 68.6896 23.5068 69.3696ZM-3.73321 83.9696C-14.1732 89.0896 -21.2532 93.4896 -26.6932 100.45C-30.6932 105.57 -32.1732 104.85 -28.9332 99.9696C-23.4132 91.7296 -15.6932 85.4096 -4.33321 81.2096C0.626793 79.3696 2.90679 80.7296 -3.73321 83.9696Z" fill="black" fill-opacity="0.53"/>
<path fill-rule="evenodd" clip-rule="evenodd" d="M3.62614 314.394C0.756145 315.094 0.931141 316.249 4.01114 316.844C10.4161 318.069 13.3211 322.094 23.1211 338.089C27.9161 345.894 33.4111 350.899 40.7611 354.224C53.6061 359.999 49.4761 373.649 32.0811 382.959C25.0111 386.739 19.3761 391.114 12.3061 398.289C2.22614 408.544 -2.84886 409.979 -11.4239 404.869C-22.0638 398.534 -22.7636 387.474 -14.0835 361.574C-13.9435 361.049 -10.6889 352.614 -10.7239 341.239C-10.7939 324.649 -9.18386 318.944 -3.26886 316.074C-1.06386 314.989 -0.958857 314.709 -2.46386 314.184C-6.59386 312.749 -11.0035 316.424 -13.0335 322.934C-15.0985 329.584 -15.0989 329.689 -15.1689 340.924C-15.2039 352.964 -15.2385 353.069 -18.6335 362.099C-29.0636 389.714 -25.3536 404.449 -6.90851 409.209C2.50649 411.624 6.11149 409.944 20.7415 396.469C23.7865 393.669 26.9011 391.289 31.5211 388.209C43.0011 380.544 44.2615 379.634 46.4665 377.534C57.3865 367.034 57.0711 359.369 45.3461 353.069C34.9511 347.469 30.6811 340.294 20.9511 326.049C15.0361 317.369 8.28115 313.274 3.62614 314.394Z" fill="black" fill-opacity="0.53"/>
<path d="M651.127 269.043C659.317 267.304 663.805 268.546 666.366 273.271C671.801 283.342 676.434 284.841 688.895 280.595C698.42 277.344 702.018 277.248 706.247 280.256C712.017 284.327 710.181 274.471 703.695 271.6C698.954 269.502 695.758 269.71 687.989 272.668C676.014 277.208 672.634 276.568 668.814 269.12C664.262 260.144 657.52 257.728 647.435 261.368C642.238 263.188 643.293 270.683 651.127 269.043Z" fill="black" fill-opacity="0.53"/>
<path d="M659.203 311.925C657.86 311.263 654.547 310.32 651.909 309.829C644.633 308.528 644.041 307.947 644.059 302.327C644.122 291.813 636.986 282.49 629.178 282.926C622.521 283.244 623.244 288.702 630.118 289.891C637.432 291.162 639.842 293.767 639.933 300.606C640.067 311.21 644.107 316.301 653.436 317.754C661.613 319.014 663.664 320.787 662.369 325.443C661.24 329.529 663.107 335.249 665.071 333.667C669.936 329.81 665.986 315.243 659.203 311.925Z" fill="black" fill-opacity="0.53"/>
<path d="M614.402 337.179C610.934 332.873 610.926 332.941 614.553 328.089C620.721 319.819 618.709 307.116 610.373 301.562C602.971 296.626 603.792 304.061 608.536 307.09C614.761 311.106 615.404 315.384 610.728 321.33C606.617 326.51 606.151 331.806 609.398 337.847C610.747 340.372 612.359 342.374 614.101 344.459C617.699 348.847 615.124 351.295 610.871 354.597C603.233 360.5 606.553 367.791 614.009 361.971C622.221 355.543 622.343 347.036 614.402 337.179Z" fill="black" fill-opacity="0.53"/>
<path d="M256.127 793.043C264.317 791.304 268.805 792.546 271.366 797.271C276.801 807.342 281.434 808.841 293.895 804.595C303.42 801.344 307.018 801.248 311.247 804.256C317.017 808.327 315.181 798.471 308.695 795.6C303.954 793.502 300.758 793.71 292.989 796.668C281.014 801.208 277.634 800.568 273.814 793.12C269.262 784.144 262.52 781.728 252.435 785.368C247.238 787.188 248.293 794.683 256.127 793.043Z" fill="black" fill-opacity="0.53"/>
<path d="M264.203 835.925C262.86 835.263 259.547 834.32 256.909 833.829C249.633 832.528 249.041 831.947 249.059 826.327C249.122 815.813 241.986 806.49 234.178 806.926C227.521 807.244 228.244 812.702 235.118 813.891C242.432 815.162 244.842 817.767 244.933 824.606C245.067 835.21 249.107 840.301 258.436 841.754C266.613 843.014 268.664 844.787 267.369 849.443C266.239 853.529 268.107 859.249 270.071 857.667C274.936 853.81 270.986 839.243 264.203 835.925Z" fill="black" fill-opacity="0.53"/>
<path d="M219.402 861.179C215.934 856.873 215.926 856.941 219.553 852.089C225.721 843.819 223.709 831.116 215.373 825.562C207.971 820.626 208.792 828.061 213.536 831.09C219.761 835.106 220.404 839.384 215.728 845.33C211.617 850.51 211.15 855.806 214.398 861.847C215.747 864.372 217.359 866.374 219.101 868.459C222.699 872.847 220.124 875.295 215.871 878.597C208.233 884.5 211.553 891.791 219.009 885.971C227.221 879.543 227.343 871.036 219.402 861.179Z" fill="black" fill-opacity="0.53"/>
<path fill-rule="evenodd" clip-rule="evenodd" d="M25.2782 803.558C24.9267 803.595 23.2432 803.761 21.5227 803.909C17.4527 804.279 17.0827 804.538 18.4332 805.981C19.1732 806.777 25.2412 806.851 28.5527 806.111C30.9022 805.593 27.9052 803.262 25.2782 803.558ZM32.1417 803.687C31.1057 803.965 31.0317 804.224 31.7347 804.927C32.6597 805.852 35.7492 805.648 35.6197 804.668C35.4902 803.872 33.5292 803.317 32.1417 803.687ZM33.0297 810.273C28.2567 810.995 31.3832 812.937 32.1972 812.9L34.3432 812.826C38.2652 812.678 39.1901 811.624 36.5631 810.292C35.7121 809.848 35.8047 809.848 33.0297 810.273ZM16.4537 811.383C13.4567 812.253 13.0127 812.697 14.1967 813.696C14.8997 814.288 15.3992 814.288 18.1557 813.733C20.5977 813.252 20.8752 812.863 19.6727 811.661C18.9142 810.921 18.2852 810.865 16.4537 811.383ZM25.5927 816.415C23.5022 816.711 22.8362 817.599 24.0202 818.487C24.9637 819.19 29.9032 818.58 29.9032 817.766C29.9032 816.471 28.3862 816.008 25.5927 816.415ZM34.3062 822.391C31.8272 823.279 33.6772 824.722 36.5816 824.167C37.8582 823.926 38.2097 823.612 37.8767 822.983C37.4142 822.132 35.7862 821.854 34.3062 822.391ZM21.6707 822.798C13.8637 823.741 19.0807 825.813 19.4137 825.813C21.3562 825.776 25.7962 825.129 26.2587 824.796C27.9607 823.556 25.2412 822.372 21.6707 822.798ZM11.9767 824.574C11.3477 824.907 11.3292 825.129 11.8842 825.795C12.6057 826.664 15.0107 826.461 15.3807 825.499C15.7137 824.611 13.2347 823.945 11.9767 824.574Z" fill="black" fill-opacity="0.53"/>
<path d="M72.7882 1036.05C67.2827 1037.68 59.3657 1044.74 63.0057 1044.74C65.3717 1044.74 75.5182 1038.5 75.5182 1037.05C75.5182 1034.95 73.1067 1035.95 72.7882 1036.05Z" fill="black" fill-opacity="0.53"/>
<path d="M65.4169 989.498C60.6849 988.77 55.6344 988.862 53.8144 989.681C48.8094 991.91 50.5385 993.548 57.955 993.548C65.053 993.548 70.9679 990.317 65.4169 989.498Z" fill="black" fill-opacity="0.53"/>
<path d="M68.8751 1020.48C69.8306 1018.94 67.9651 1018.48 64.3706 1019.3C57.5001 1020.89 52.1312 1023.62 53.2687 1024.99C54.6337 1026.63 67.3281 1022.99 68.8751 1020.48Z" fill="black" fill-opacity="0.53"/>
<path d="M99.8148 1020.89C98.9958 1020.58 99.0413 1020.58 96.8118 1021.12C91.2153 1022.44 85.0733 1025.53 85.0733 1027.04C85.0733 1029.22 90.8973 1026.58 96.2663 1025.17C99.6333 1024.26 101.817 1021.67 99.8148 1020.89Z" fill="black" fill-opacity="0.53"/>
<path d="M93.9913 1010.97C98.8598 1008.34 95.3563 1006.61 87.7578 1007.88C84.2543 1008.47 82.2066 1009.97 83.4806 1011.02C84.5273 1011.88 92.3078 1011.88 93.9913 1010.97Z" fill="black" fill-opacity="0.53"/>
<path d="M71.6507 965.019C66.2817 962.198 65.8267 962.062 64.1887 962.927C62.3687 963.837 62.596 964.519 65.599 966.748C70.786 970.57 73.9256 971.663 75.8821 970.298C77.9296 968.887 77.0652 967.84 71.6507 965.019Z" fill="black" fill-opacity="0.53"/>
<path d="M139.036 948.73C140.492 948.73 150.775 941.723 151.594 940.176C152.686 938.174 149.819 937.31 146.407 938.675C138.808 941.678 133.667 948.73 139.036 948.73Z" fill="black" fill-opacity="0.53"/>
<path d="M148.773 967.704C146.953 968.023 140.447 971.299 139.446 972.391C136.852 975.257 141.584 975.303 148.045 972.482C155.37 969.251 155.78 966.43 148.773 967.704Z" fill="black" fill-opacity="0.53"/>
<path d="M161.104 954.691C163.197 956.011 176.983 952.644 176.983 950.824C176.983 949.368 172.114 949.231 167.109 950.551C161.922 951.916 159.42 953.599 161.104 954.691Z" fill="black" fill-opacity="0.53"/>
<path d="M92.7173 974.256C91.5798 974.893 91.7158 975.575 93.5813 978.123C96.7208 982.355 99.0418 983.492 100.953 981.718C103.455 979.352 95.8113 972.436 92.7173 974.256Z" fill="black" fill-opacity="0.53"/>
<path d="M94.8558 994.686C99.0418 993.321 98.3138 991.546 92.3533 988.361C89.5323 986.86 89.3958 986.814 88.0308 987.36C84.2088 988.862 90.8063 995.96 94.8558 994.686Z" fill="black" fill-opacity="0.53"/>
<path d="M116.149 973.118C118.879 969.979 121.701 963.563 120.29 962.153C119.153 961.015 117.514 961.379 115.649 963.063C113.374 965.11 111.736 969.023 111.736 972.39C111.736 972.436 111.417 978.487 116.149 973.118Z" fill="black" fill-opacity="0.53"/>
<path d="M90.1688 953.463C94.4458 955.738 96.5388 953.235 95.6743 946.82C95.0373 942.042 92.2163 939.858 89.3953 942.042C88.4398 942.77 88.4853 943.407 88.4853 950.733C88.4853 951.87 89.1223 952.917 90.1688 953.463Z" fill="black" fill-opacity="0.53"/>
<path d="M114.83 997.416C111.235 998.872 119.471 1005.97 123.429 1004.83C125.522 1004.24 125.568 1002.78 123.657 1000.96C119.698 997.188 117.469 996.324 114.83 997.416Z" fill="black" fill-opacity="0.53"/>
<path d="M164.925 1011.57C164.379 1012.43 165.745 1013.2 169.976 1014.48C176.574 1016.48 181.124 1016.75 181.124 1015.16C181.078 1013.02 166.063 1009.65 164.925 1011.57Z" fill="black" fill-opacity="0.53"/>
<path d="M176.937 996.779C177.301 995.004 164.288 993.184 161.877 994.686C159.465 996.187 161.103 996.915 168.52 997.643C174.662 998.235 176.664 998.053 176.937 996.779Z" fill="black" fill-opacity="0.53"/>
<path d="M112.874 944.363C115.74 938.584 114.966 933.988 111.372 935.444C108.369 936.673 104.593 946.547 106.504 948.139C108.87 950.096 110.553 949.049 112.874 944.363Z" fill="black" fill-opacity="0.53"/>
<path d="M188.949 966.476C186.674 965.839 185.218 965.93 180.668 966.931C171.341 968.978 172.797 971.208 182.761 970.116C190.087 969.297 192.999 967.568 188.949 966.476Z" fill="black" fill-opacity="0.53"/>
<path d="M206.421 1007.93C204.829 1006.61 194 1005.15 191.316 1005.88C188.859 1006.56 189.632 1008.06 192.589 1008.52C193.636 1008.65 196.73 1009.11 199.414 1009.47C205.83 1010.34 208.651 1009.75 206.421 1007.93Z" fill="black" fill-opacity="0.53"/>
<path d="M201.826 992.638C200.279 992.001 192.089 991.728 189.404 992.274C185.719 993.002 187.994 994.913 192.908 995.277C201.053 995.869 206.012 994.367 201.826 992.638Z" fill="black" fill-opacity="0.53"/>
<path d="M169.612 982.992C170.112 981.491 160.239 980.444 155.234 981.491C152.322 982.082 151.594 982.81 152.913 983.857C154.87 985.495 169.02 984.721 169.612 982.992Z" fill="black" fill-opacity="0.53"/>
<path d="M142.858 1016.57C139.855 1017.07 139.081 1017.66 140.31 1018.57C142.175 1019.98 152.868 1019.12 152.868 1017.57C152.868 1016.16 148.318 1015.66 142.858 1016.57Z" fill="black" fill-opacity="0.53"/>
<path d="M115.285 1017.44C112.737 1017.94 111.463 1018.94 112.282 1019.76C113.92 1021.44 125.113 1020.53 125.113 1018.76C125.113 1018.07 122.975 1015.93 115.285 1017.44Z" fill="black" fill-opacity="0.53"/>
<path d="M121.018 1010.7C118.743 1009.29 109.188 1008.15 108.506 1009.25C107.732 1010.52 110.781 1011.88 116.605 1012.93C120.882 1013.7 123.657 1012.29 121.018 1010.7Z" fill="black" fill-opacity="0.53"/>
<path d="M137.626 962.381C138.399 959.969 135.077 959.924 132.074 962.29C125.659 967.34 122.792 972.846 126.569 972.846C128.207 972.846 136.943 964.565 137.626 962.381Z" fill="black" fill-opacity="0.53"/>
<path d="M133.986 994.64C132.575 995.232 128.753 999.554 128.753 1000.56C128.753 1002.19 132.12 1001.87 133.849 1000.05C137.443 996.141 137.535 993.184 133.986 994.64Z" fill="black" fill-opacity="0.53"/>
<path d="M147.726 1007.61C148.409 1005.79 144.36 1005.11 140.811 1006.42C135.624 1008.38 133.167 1010.25 134.941 1010.93C136.625 1011.57 147.271 1008.79 147.726 1007.61Z" fill="black" fill-opacity="0.53"/>
<path d="M835.788 759.045C830.283 760.683 822.366 767.736 826.006 767.736C828.372 767.736 838.518 761.502 838.518 760.046C838.518 757.953 836.107 758.954 835.788 759.045Z" fill="black" fill-opacity="0.53"/>
<path d="M828.417 712.498C823.685 711.77 818.634 711.862 816.814 712.681C811.809 714.91 813.538 716.548 820.955 716.548C828.053 716.548 833.968 713.317 828.417 712.498Z" fill="black" fill-opacity="0.53"/>
<path d="M831.875 743.484C832.831 741.937 830.965 741.482 827.371 742.301C820.5 743.893 815.131 746.623 816.269 747.988C817.634 749.626 830.328 745.987 831.875 743.484Z" fill="black" fill-opacity="0.53"/>
<path d="M862.815 743.894C861.996 743.575 862.041 743.575 859.812 744.121C854.215 745.441 848.073 748.535 848.073 750.036C848.073 752.22 853.897 749.581 859.266 748.171C862.633 747.261 864.817 744.667 862.815 743.894Z" fill="black" fill-opacity="0.53"/>
<path d="M856.991 733.975C861.86 731.336 858.356 729.607 850.758 730.881C847.254 731.472 845.207 732.974 846.481 734.02C847.527 734.885 855.308 734.885 856.991 733.975Z" fill="black" fill-opacity="0.53"/>
<path d="M834.651 688.019C829.282 685.198 828.827 685.062 827.189 685.927C825.369 686.837 825.596 687.519 828.599 689.748C833.786 693.57 836.926 694.663 838.882 693.298C840.93 691.887 840.065 690.84 834.651 688.019Z" fill="black" fill-opacity="0.53"/>
<path d="M902.036 671.73C903.492 671.73 913.775 664.723 914.594 663.176C915.686 661.174 912.819 660.31 909.407 661.675C901.808 664.678 896.667 671.73 902.036 671.73Z" fill="black" fill-opacity="0.53"/>
<path d="M911.773 690.704C909.953 691.023 903.447 694.299 902.446 695.391C899.852 698.257 904.584 698.303 911.045 695.482C918.37 692.251 918.78 689.43 911.773 690.704Z" fill="black" fill-opacity="0.53"/>
<path d="M924.104 677.691C926.197 679.011 939.983 675.644 939.983 673.824C939.983 672.368 935.114 672.231 930.109 673.551C924.922 674.916 922.42 676.599 924.104 677.691Z" fill="black" fill-opacity="0.53"/>
<path d="M855.717 697.256C854.58 697.893 854.716 698.575 856.581 701.123C859.721 705.355 862.042 706.492 863.953 704.718C866.455 702.352 858.811 695.436 855.717 697.256Z" fill="black" fill-opacity="0.53"/>
<path d="M857.856 717.686C862.042 716.321 861.314 714.546 855.353 711.361C852.532 709.86 852.396 709.814 851.031 710.36C847.209 711.862 853.806 718.96 857.856 717.686Z" fill="black" fill-opacity="0.53"/>
<path d="M879.149 696.118C881.879 692.979 884.701 686.563 883.29 685.153C882.153 684.015 880.514 684.379 878.649 686.063C876.374 688.11 874.736 692.023 874.736 695.39C874.736 695.436 874.417 701.487 879.149 696.118Z" fill="black" fill-opacity="0.53"/>
<path d="M853.169 676.463C857.446 678.738 859.539 676.235 858.674 669.82C858.037 665.042 855.216 662.858 852.395 665.042C851.44 665.77 851.485 666.407 851.485 673.733C851.485 674.87 852.122 675.917 853.169 676.463Z" fill="black" fill-opacity="0.53"/>
<path d="M877.83 720.416C874.235 721.872 882.471 728.97 886.429 727.832C888.522 727.241 888.568 725.785 886.657 723.965C882.698 720.188 880.469 719.324 877.83 720.416Z" fill="black" fill-opacity="0.53"/>
<path d="M927.925 734.566C927.379 735.43 928.745 736.204 932.976 737.478C939.574 739.48 944.124 739.753 944.124 738.161C944.078 736.022 929.063 732.655 927.925 734.566Z" fill="black" fill-opacity="0.53"/>
<path d="M939.937 719.779C940.301 718.004 927.288 716.184 924.877 717.686C922.465 719.187 924.103 719.915 931.52 720.643C937.662 721.235 939.664 721.053 939.937 719.779Z" fill="black" fill-opacity="0.53"/>
<path d="M875.874 667.363C878.74 661.584 877.966 656.988 874.372 658.444C871.369 659.673 867.593 669.547 869.504 671.139C871.87 673.096 873.553 672.049 875.874 667.363Z" fill="black" fill-opacity="0.53"/>
<path d="M951.949 689.476C949.674 688.839 948.218 688.93 943.668 689.931C934.341 691.978 935.797 694.208 945.761 693.116C953.087 692.297 955.999 690.568 951.949 689.476Z" fill="black" fill-opacity="0.53"/>
<path d="M969.421 730.926C967.829 729.606 957 728.15 954.316 728.878C951.859 729.561 952.632 731.063 955.589 731.518C956.636 731.654 959.73 732.109 962.414 732.473C968.83 733.338 971.651 732.746 969.421 730.926Z" fill="black" fill-opacity="0.53"/>
<path d="M964.826 715.638C963.279 715.001 955.089 714.728 952.404 715.274C948.719 716.002 950.994 717.913 955.908 718.277C964.053 718.869 969.012 717.367 964.826 715.638Z" fill="black" fill-opacity="0.53"/>
<path d="M932.612 705.992C933.112 704.491 923.239 703.444 918.234 704.491C915.322 705.082 914.594 705.81 915.913 706.857C917.87 708.495 932.02 707.721 932.612 705.992Z" fill="black" fill-opacity="0.53"/>
<path d="M905.858 739.571C902.855 740.072 902.081 740.663 903.31 741.573C905.175 742.984 915.868 742.119 915.868 740.572C915.868 739.162 911.318 738.661 905.858 739.571Z" fill="black" fill-opacity="0.53"/>
<path d="M878.285 740.435C875.737 740.936 874.463 741.937 875.282 742.756C876.92 744.439 888.113 743.53 888.113 741.755C888.113 741.073 885.975 738.934 878.285 740.435Z" fill="black" fill-opacity="0.53"/>
<path d="M884.018 733.702C881.743 732.291 872.188 731.154 871.506 732.246C870.732 733.52 873.781 734.884 879.605 735.931C883.882 736.704 886.657 735.294 884.018 733.702Z" fill="black" fill-opacity="0.53"/>
<path d="M900.626 685.381C901.399 682.969 898.077 682.924 895.074 685.29C888.659 690.34 885.792 695.846 889.569 695.846C891.207 695.846 899.943 687.565 900.626 685.381Z" fill="black" fill-opacity="0.53"/>
<path d="M896.986 717.64C895.575 718.232 891.753 722.554 891.753 723.555C891.753 725.193 895.12 724.874 896.849 723.054C900.443 719.141 900.535 716.184 896.986 717.64Z" fill="black" fill-opacity="0.53"/>
<path d="M910.726 730.608C911.409 728.788 907.36 728.105 903.811 729.425C898.624 731.381 896.167 733.247 897.941 733.929C899.625 734.566 910.271 731.791 910.726 730.608Z" fill="black" fill-opacity="0.53"/>
<path d="M740.872 927.529C741.832 925.409 738.392 923.729 735.392 924.889C733.632 925.569 728.552 929.729 728.672 930.369C729.432 934.289 738.752 932.129 740.872 927.529Z" fill="black" fill-opacity="0.53"/>
<path d="M766.352 918.888C760.312 921.408 725.352 946.808 723.072 950.288C721.832 952.168 725.752 953.968 728.312 952.728C731.312 951.328 756.992 931.608 768.192 921.888C769.752 920.568 768.232 918.128 766.352 918.888Z" fill="black" fill-opacity="0.53"/>
<path d="M689.192 916.769C683.552 920.529 682.512 921.969 684.592 923.009C688.672 925.089 691.312 921.969 696.312 918.729C699.712 916.489 693.712 913.729 689.192 916.769Z" fill="black" fill-opacity="0.53"/>
<path d="M706.752 924.569C711.032 922.489 717.152 918.249 724.392 912.249C727.472 909.689 733.792 905.048 738.432 901.928C746.712 896.368 747.632 895.568 746.312 895.088C745.192 894.648 744.952 894.769 731.352 902.969C717.712 911.209 707.712 917.689 703.072 921.369C697.232 925.969 701.112 927.329 706.752 924.569Z" fill="black" fill-opacity="0.53"/>
<path d="M704.432 911.969C707.392 910.329 713.072 906.329 725.192 897.849C741.952 886.129 752.392 879.369 753.992 877.649L755.192 876.369C753.472 874.969 752.432 873.689 746.912 876.569C739.472 880.409 713.552 898.848 703.832 906.928C698.352 911.408 699.952 914.449 704.432 911.969Z" fill="black" fill-opacity="0.53"/>
<path d="M699.392 937.529C695.232 940.849 695.112 941.009 696.672 942.169C699.712 944.409 710.912 938.969 709.112 936.089C707.392 933.329 703.992 933.809 699.392 937.529Z" fill="black" fill-opacity="0.53"/>
<path d="M796.992 869.808C794.112 871.248 734.752 911.368 716.472 925.328C708.672 931.288 713.632 932.208 719.032 929.608C725.952 926.288 729.352 921.688 777.792 889.488C797.192 876.569 802.592 872.368 802.592 870.128C802.592 868.768 799.392 868.608 796.992 869.808Z" fill="black" fill-opacity="0.53"/>
<path d="M769.392 906.088C772.952 902.848 781.712 896.288 784.192 894.528C785.232 893.688 782.512 893.168 781.112 893.928C757.312 906.968 735.592 924.449 742.792 924.449C745.792 924.449 760.032 914.688 769.392 906.088Z" fill="black" fill-opacity="0.53"/>
<path d="M781.792 906.169C771.712 911.809 769.792 913.808 773.152 915.408C775.792 916.648 776.592 916.288 783.832 910.808C793.312 903.608 789.712 901.729 781.792 906.169Z" fill="black" fill-opacity="0.53"/>
<path d="M734.392 960.369C729.872 963.289 729.152 965.049 731.952 966.409C734.952 967.889 739.432 965.889 741.552 962.169C742.632 960.209 736.872 958.769 734.392 960.369Z" fill="black" fill-opacity="0.53"/>
<path d="M781.192 924.529C776.792 927.729 766.512 935.649 755.792 942.809C740.952 952.729 738.032 955.969 742.552 957.289C745.312 958.089 751.432 953.849 762.392 943.289C766.352 939.449 776.632 930.849 782.072 926.649C785.032 924.369 784.152 922.369 781.192 924.529Z" fill="black" fill-opacity="0.53"/>
<path fill-rule="evenodd" clip-rule="evenodd" d="M301.982 289.323C297.32 294.096 290.457 304.141 290.753 304.622C291.733 306.232 304.276 311.726 306.866 313.391C307.032 313.502 305.922 314.76 302.888 317.831C300.15 320.606 297.32 323.659 295.618 325.601C293.472 328.062 292.029 327.414 303.869 333.686C314.007 339.051 315.746 339.587 317.208 337.793C318.521 336.165 321.962 332.502 326.55 327.803C332.322 321.92 332.267 322.068 329.085 320.755C328.03 320.329 316.338 315.167 313.156 313.78C311.546 313.077 310.881 313.965 319.206 305.677C321.981 302.921 324.404 300.46 325.643 299.146C327.308 297.37 326.365 296.667 324.163 295.613C319.15 293.226 310.067 289.397 306.052 287.88C303.703 286.992 304.424 286.825 301.982 289.323ZM323.331 297.426C323.238 297.685 314.451 305.936 311.343 309.229C308.809 311.93 309.604 311.875 305.053 309.562C297.82 305.899 294.194 305.048 293.676 304.604C293.509 304.4 303.925 290.932 304.628 289.6C304.887 289.101 304.905 289.082 305.59 289.378C305.59 289.378 323.553 296.852 323.331 297.426ZM328.53 323.178C325.699 325.99 326.606 325.009 315.395 336.794C313.359 335.943 300.576 329.153 297.431 327.525C298.023 326.933 309.918 315.001 310.011 315.001C310.029 315.001 328.493 323.159 328.53 323.178Z" fill="black" fill-opacity="0.53"/>
<path fill-rule="evenodd" clip-rule="evenodd" d="M1047.62 1002.19C1045.45 1003.15 1046.06 996.131 1048.43 991.94C1052.57 984.718 1052.47 981.284 1048.13 981.284C1047.32 981.284 1046.66 981.082 1046.66 980.779C1046.66 980.426 1042.87 975.477 1034.29 983.809C1014.39 1003.15 998.636 1004.56 981.921 988.505C974.75 983.405 968.69 981.587 971.771 989.869C972.629 992.192 961.216 983.607 970.356 998.707C972.073 1001.53 972.225 1001.99 971.417 1001.99C970.912 1001.99 969.952 1002.44 969.346 1002.95C968.69 1003.5 968.538 1004.46 969.043 1005.17C970.811 1007.75 974.346 1010.78 976.568 1012.9L980.305 1016.48L973.437 1013.76C959.549 1008.25 954.701 1010.83 963.236 1019.21C975.457 1031.23 1000.05 1035.57 1018.13 1029.06C1022.52 1027.49 1022.73 1027.69 1018.99 1029.97C1010.15 1035.32 1006.62 1036.08 990.253 1036.08C976.82 1036.08 975.406 1036.28 976.113 1038C976.265 1038.35 978.386 1039.31 980.861 1040.07C1007.98 1048.35 1033.23 1042.14 1043.18 1024.87C1044.64 1022.29 1045.15 1021.84 1046.06 1022.04C1048.83 1022.69 1055.2 1018.05 1057.17 1013.91C1060.65 1006.18 1054.84 998.959 1047.62 1002.19ZM1021.31 1003.76C1025.96 1000.47 1026.92 1005.32 1023.38 1007.7C1018.43 1011.03 1011.21 1012.04 1004.14 1011.74C1003.64 1011.74 1003.59 1010.98 1004.09 1010.88C1013.08 1009.36 1017.22 1006.69 1021.31 1003.76ZM988.688 999.363C989.143 999.464 997.627 1004.92 1002.83 1004.51C1005.45 1004.31 1007.27 1005.98 1003.23 1006.58C998.687 1007.24 995.455 1007.64 991.061 1004.16C990.001 1003.3 988.183 999.211 988.688 999.363ZM997.475 1028.5C991.769 1028.15 983.486 1025.83 977.376 1023C975.608 1022.19 965.66 1016.28 966.316 1015.27C966.821 1014.51 977.376 1019.56 980.153 1020.67C982.931 1021.79 988.638 1023.45 991.718 1024.16C1004.75 1027.19 1005.56 1029.06 997.475 1028.5ZM999.798 1020.83C996.162 1019.46 992.526 1017.69 988.839 1015.17C988.89 1015.17 1007.42 1021.79 1024.85 1013.55C1028.23 1011.94 1028.78 1012.44 1026.97 1014.87C1019.39 1024.76 1006.67 1023.45 999.798 1020.83ZM1030.7 1029.36C1029.95 1031.13 1025.55 1034.21 1021.72 1036.28C1015.05 1039.91 1006.31 1040.02 1006.06 1039.81C1005.56 1039.41 1012.78 1037.19 1015.66 1036.13C1018.23 1035.22 1023.08 1032.59 1024.9 1031.53C1028.84 1029.26 1031.41 1027.79 1030.7 1029.36Z" fill="black" fill-opacity="0.53"/>
</svg>
