<svg width="315" height="210" viewBox="0 0 315 210" fill="none" xmlns="http://www.w3.org/2000/svg">
<path fill-rule="evenodd" clip-rule="evenodd" d="M150.123 1.00659C136.101 5.03903 132.131 17.4097 132.047 17.4781C132.047 17.4781 74.6077 18.5716 64.1335 18.7083C29.2478 19.1184 51.1253 23.971 62.782 24.5861C76.8039 25.3379 125.964 23.9027 132.299 23.766C136.692 43.3131 175.717 41.6044 187.965 24.3127C188.894 23.0142 190.246 23.0142 233.578 23.0142C287.047 23.0142 289.243 23.2192 296.591 28.5502C302.758 32.9927 305.208 30.4639 300.055 24.9279C294.734 19.3235 287.047 16.3162 274.461 15.086C260.777 13.719 207.899 14.2658 191.427 15.9745C190.329 16.1112 189.57 15.3593 188.725 13.514C186.783 8.93478 179.687 4.15052 174.872 4.15052C173.521 4.15052 171.916 3.60375 171.24 2.98863C168.453 0.11808 156.965 -0.97546 150.123 1.00659ZM169.382 5.51745C169.635 5.85918 170.564 6.20092 171.325 6.20092C184.08 6.20092 179.856 22.6041 165.581 28.2085C146.237 35.795 135.341 21.6472 151.052 9.34486C155.867 5.5858 167.524 3.12532 169.382 5.51745ZM20.4631 24.0394C4.83629 30.2589 1.96434 42.0145 0.359433 105.645C-1.83676 191.83 4.92076 205.363 51.97 208.643C67.7657 209.737 231.213 209.6 259.764 208.507C306.728 206.593 309.515 205.773 310.951 192.513C311.289 189.506 312.218 181.646 312.978 175.017C317.371 137.563 314.077 41.5361 308.164 35.795C303.941 31.6942 303.264 44.3383 303.264 128.541C303.264 194.017 300.73 193.334 285.104 199.143C285.104 199.143 119.038 199.827 92.5151 200.032C26.4604 200.647 29.3323 200.647 25.6157 199.143C14.8881 194.632 12.2687 178.571 12.3532 119.656C12.5221 49.1909 14.6339 35.1798 26.2906 27.115C32.0345 23.1509 27.9808 21.0321 20.4631 24.0394Z" fill="url(#paint0_linear_629_638)"/>
<defs>
<linearGradient id="paint0_linear_629_638" x1="157.5" y1="0" x2="157.5" y2="209.398" gradientUnits="userSpaceOnUse">
<stop stop-color="#6E2391"/>
<stop offset="1" stop-color="#3A224A"/>
</linearGradient>
</defs>
</svg>
